# xmcd
#
# Track frame offsets:
#   150
#   2556
#   19758
#   40121
#   55835
#   70196
#   88777
#   105590
#   123317
#   144811
#   160108
#   178091
#   202816
#   216470
#   231443
#   255662
#   274730
#   291984
#   319539
#   335599
#
# Disc length: 4783 seconds
#
# Revision: 0
# Processed by: cddbd v1.5.2PL0 Copyright (c) Steve Scherf et al.
# Submitted via: uFREEDB ActiveX Control 1.5
#
DISCID=1c12ad14
DTITLE=FLEX1 - 1
DYEAR=1900
DGENRE=Soundtrack
TTITLE0=FLEX1
TTITLE1=FLEX2
TTITLE2=FLEX3
TTITLE3=FLEX4
TTITLE4=FLEX5
TTITLE5=FLEX6
TTITLE6=FLEX7
TTITLE7=FLEX8
TTITLE8=FLEX9
TTITLE9=FLEX10
TTITLE10=FLEX11
TTITLE11=FLEX12
TTITLE12=FLEX13
TTITLE13=FLEX14
TTITLE14=FLEX15
TTITLE15=FLEX16
TTITLE16=FLEX17
TTITLE17=FLEX18
TTITLE18=FLEX19
TTITLE19=FLEX20
EXTD=
EXTT0=
EXTT1=
EXTT2=
EXTT3=
EXTT4=
EXTT5=
EXTT6=
EXTT7=
EXTT8=
EXTT9=
EXTT10=
EXTT11=
EXTT12=
EXTT13=
EXTT14=
EXTT15=
EXTT16=
EXTT17=
EXTT18=
EXTT19=
PLAYORDER=
